<svg id="Grupo_1" data-name="Grupo 1" xmlns="http://www.w3.org/2000/svg" width="853" height="850" viewBox="0 0 853 850">
  <defs>
    <style>
      .cls-1, .cls-2, .cls-3 {
        fill: #fff;
      }

      .cls-1 {
        fill-rule: evenodd;
      }

      .cls-2 {
        font-size: 271px;
      }

      .cls-2, .cls-3 {
        font-family: "Perpetua Titling MT";
        font-weight: 300;
      }

      .cls-3 {
        font-size: 130px;
      }
    </style>
  </defs>
  <path id="Forma_1" data-name="Forma 1" class="cls-1" d="M432.527,222.562c0-3.508,1.229-12.717,5.682-18.416,5.68-7.308,10.9-11.838,23.491-11.838,8.6,0,15.353,7.6,15.353,15.785s-5.528,16.953-11.516,20.315c0-9.646-4.145-15.638-15.353-15.638-7.063,0-12.129,4.822-12.129,9.792,3.224,0,6.6,1.9,6.6,5.7-2.3-1.314-4.3-2.191-6.6-2.191a15.084,15.084,0,0,0,4.145,10.522c0.613-2.922,1.842-5.26,4.3-5.26,2.918,0,5.682,3.069,5.682,6.43,0,3.508-2.151,6.284-5.836,6.284-6.142,0-12.589-7.454-13.205-17.976h-3.069c0,3.654.3,6.577,1.227,8.768a13.314,13.314,0,0,1,1.229,4.532c0,2.045-3.07,9.354-5.528,14.615-2.456-5.261-5.526-12.57-5.526-14.615a13.354,13.354,0,0,1,1.227-4.532c0.921-2.191,1.229-5.114,1.229-8.768h-3.072c-0.613,10.522-7.063,17.976-13.2,17.976-3.684,0-5.834-2.776-5.834-6.284,0-3.361,2.764-6.43,5.682-6.43,2.456,0,3.683,2.338,4.3,5.26a15.093,15.093,0,0,0,4.145-10.522c-2.3,0-4.3.877-6.6,2.191,0-3.8,3.378-5.7,6.6-5.7,0-4.97-5.067-9.792-12.129-9.792-11.208,0-15.355,5.992-15.355,15.638-5.988-3.362-11.514-12.13-11.514-20.315s6.755-15.785,15.353-15.785c12.591,0,17.811,4.53,23.491,11.838,4.453,5.7,5.682,14.908,5.682,18.416h2.456c0-8.331-3.993-16.662-7.984-23.823-1.843-3.362-3.992-7.454-3.992-11.109,0-4.385,2.149-9.208,5.221-14.468A209.2,209.2,0,0,0,427,154.015a209.19,209.19,0,0,0,9.827,19.147c3.072,5.26,5.22,10.083,5.22,14.468,0,3.655-2.148,7.747-3.991,11.109-3.993,7.161-7.984,15.492-7.984,23.823h2.456Z"/>
  <path id="Forma_1_copia" data-name="Forma 1 copia" class="cls-1" d="M421.48,626.438c0,3.508-1.227,12.717-5.675,18.416-5.673,7.308-10.886,11.838-23.462,11.838-8.587,0-15.334-7.6-15.334-15.785s5.522-16.953,11.5-20.315c0,9.646,4.14,15.638,15.333,15.638,7.055,0,12.115-4.822,12.115-9.792-3.22,0-6.593-1.9-6.593-5.7,2.3,1.314,4.293,2.191,6.593,2.191a15.1,15.1,0,0,0-4.14-10.522c-0.613,2.922-1.84,5.26-4.293,5.26-2.915,0-5.675-3.069-5.675-6.43,0-3.508,2.147-6.284,5.828-6.284,6.134,0,12.574,7.454,13.188,17.976h3.066c0-3.655-.305-6.577-1.225-8.768a13.311,13.311,0,0,1-1.228-4.532c0-2.045,3.066-9.354,5.521-14.615,2.453,5.261,5.519,12.57,5.519,14.615a13.372,13.372,0,0,1-1.225,4.532c-0.92,2.191-1.228,5.113-1.228,8.768h3.068c0.613-10.522,7.054-17.976,13.188-17.976,3.679,0,5.827,2.776,5.827,6.284,0,3.361-2.761,6.43-5.675,6.43-2.453,0-3.679-2.338-4.294-5.26a15.1,15.1,0,0,0-4.139,10.522c2.3,0,4.293-.877,6.593-2.191,0,3.8-3.374,5.7-6.593,5.7,0,4.97,5.06,9.792,12.114,9.792,11.193,0,15.335-5.992,15.335-15.638,5.98,3.362,11.5,12.13,11.5,20.315s-6.747,15.785-15.334,15.785c-12.575,0-17.789-4.53-23.462-11.838-4.447-5.7-5.675-14.908-5.675-18.416h-2.453c0,8.331,3.988,16.662,7.975,23.823,1.84,3.362,3.986,7.454,3.986,11.109,0,4.385-2.146,9.208-5.214,14.468A209.5,209.5,0,0,0,427,694.985a209.238,209.238,0,0,0-9.815-19.147c-3.068-5.26-5.213-10.083-5.213-14.468,0-3.655,2.145-7.747,3.986-11.109,3.988-7.161,7.974-15.492,7.974-23.823H421.48Z"/>
  <text id="BADA" class="cls-2" x="63" y="468">BADA</text>
  <text id="EVENTOS" class="cls-3" x="134" y="583">EVENTOS</text>
</svg>
